<?xml version="1.0" standalone="no"?>
<!DOCTYPE svg PUBLIC "-//W3C//DTD SVG 20010904//EN"
 "http://www.w3.org/TR/2001/REC-SVG-20010904/DTD/svg10.dtd">
<svg version="1.0" xmlns="http://www.w3.org/2000/svg"
 width="165.000000pt" height="195.000000pt" viewBox="0 0 165.000000 195.000000"
 preserveAspectRatio="xMidYMid meet">

<g transform="translate(0.000000,195.000000) scale(0.100000,-0.100000)"
fill="#000000" stroke="none">
<path d="M367 1630 c-29 -23 -42 -66 -32 -111 l7 -30 52 49 c48 45 136 90 184
93 37 3 -67 18 -124 18 -47 1 -67 -4 -87 -19z"/>
<path d="M590 1566 c-109 -30 -186 -61 -227 -92 -32 -24 -33 -27 -33 -98 0
-94 25 -234 54 -306 25 -64 96 -175 150 -235 l36 -40 -41 88 c-38 82 -92 227
-85 227 2 0 37 -20 78 -45 41 -24 90 -51 110 -59 32 -14 30 -10 -31 52 -110
110 -197 266 -178 316 11 29 107 48 227 44 60 -2 110 0 110 4 0 14 -119 31
-210 31 l-95 -1 35 29 c19 17 60 41 90 55 103 47 115 53 105 53 -5 0 -48 -10
-95 -23z"/>
<path d="M855 1464 c-19 -20 -20 -64 -1 -64 8 0 16 6 19 13 2 6 7 9 11 5 13
-11 -13 -47 -45 -63 -42 -22 -69 -71 -69 -126 0 -54 19 -79 38 -49 7 12 8 21
2 25 -16 10 -12 53 6 67 57 45 83 78 89 111 13 69 -16 115 -50 81z"/>
<path d="M821 1254 c0 -11 3 -14 6 -6 3 7 2 16 -1 19 -3 4 -6 -2 -5 -13z"/>
<path d="M835 1151 c-9 -11 -15 -28 -12 -38 4 -14 5 -13 6 5 0 13 5 21 11 17
12 -7 2 -33 -27 -68 -23 -28 -34 -105 -13 -92 6 3 10 15 10 27 0 11 14 36 30
55 21 23 30 44 30 68 0 42 -12 51 -35 26z"/>
<path d="M851 1024 c0 -11 3 -14 6 -6 3 7 2 16 -1 19 -3 4 -6 -2 -5 -13z"/>
<path d="M825 1021 c-3 -5 -2 -12 3 -15 5 -3 9 1 9 9 0 17 -3 19 -12 6z"/>
<path d="M819 953 c-1 -2 -2 -6 -3 -10 -1 -5 -5 -14 -9 -20 -6 -9 -3 -11 8 -7
12 5 11 -2 -7 -32 -16 -28 -18 -35 -6 -26 15 12 17 10 21 -15 2 -15 3 -12 2 8
-2 20 3 43 10 50 7 8 16 24 19 36 6 18 3 22 -14 20 -11 -1 -21 -3 -21 -4z"/>
<path d="M513 753 c175 -2 459 -2 630 0 172 1 29 2 -318 2 -347 0 -487 -1
-312 -2z"/>
<path d="M223 655 c0 -27 2 -38 4 -22 2 15 2 37 0 50 -2 12 -4 0 -4 -28z"/>
<path d="M283 655 c0 -27 2 -38 4 -22 2 15 2 37 0 50 -2 12 -4 0 -4 -28z"/>
<path d="M855 655 c0 -25 3 -45 7 -45 5 0 8 20 8 45 0 25 -3 45 -7 45 -5 0 -8
-20 -8 -45z"/>
<path d="M885 670 c0 -16 9 -37 19 -47 19 -18 19 -17 3 8 -11 18 -13 29 -5 37
6 6 7 15 4 21 -12 20 -21 12 -21 -19z"/>
<path d="M332 678 c-24 -24 -6 -69 28 -67 9 0 6 4 -7 9 -25 10 -30 39 -11 58
7 7 10 12 7 12 -3 0 -10 -5 -17 -12z"/>
<path d="M375 674 c10 -10 13 -24 9 -36 -4 -14 -2 -18 5 -14 22 14 5 66 -22
66 -5 0 -1 -7 8 -16z"/>
<path d="M423 675 c-3 -9 2 -22 12 -29 11 -8 15 -18 10 -26 -5 -9 -4 -11 3 -6
17 10 15 36 -4 43 -8 3 -13 12 -10 19 3 8 3 14 0 14 -2 0 -7 -7 -11 -15z"/>
<path d="M480 650 c0 -22 5 -40 10 -40 6 0 10 18 10 40 0 22 -4 40 -10 40 -5
0 -10 -18 -10 -40z"/>
<path d="M517 669 c4 -13 8 -18 11 -10 2 7 -1 18 -6 23 -8 8 -9 4 -5 -13z"/>
<path d="M550 650 c0 -22 5 -40 10 -40 6 0 10 18 10 40 0 22 -4 40 -10 40 -5
0 -10 -18 -10 -40z"/>
<path d="M598 683 c6 -2 12 -20 12 -39 0 -19 5 -34 10 -34 6 0 10 15 10 34 0
19 6 37 13 39 6 3 -4 5 -23 5 -19 0 -29 -2 -22 -5z"/>
<path d="M676 675 c-8 -23 -8 -27 4 -20 6 3 10 2 10 -2 0 -5 7 -18 15 -29 14
-17 14 -14 0 20 -19 49 -21 51 -29 31z"/>
<path d="M742 653 c-2 -39 0 -43 21 -42 16 1 17 3 5 6 -11 3 -18 17 -21 41
l-4 37 -1 -42z"/>
<path d="M940 650 c0 -35 3 -40 23 -39 15 1 17 3 5 6 -22 6 -21 60 1 66 10 3
8 5 -6 6 -20 1 -23 -4 -23 -39z"/>
<path d="M1012 678 c-27 -27 -2 -73 35 -66 19 3 32 38 14 38 -6 0 -8 -7 -4
-16 4 -12 0 -15 -18 -12 -18 2 -24 9 -24 28 0 21 5 25 27 25 14 -1 24 3 22 7
-8 12 -38 10 -52 -4z"/>
<path d="M1103 650 c0 -25 2 -35 4 -22 2 12 2 32 0 45 -2 12 -4 2 -4 -23z"/>
<path d="M1178 680 c15 -7 22 -18 22 -37 0 -22 2 -25 10 -13 5 8 10 18 10 22
0 13 -32 38 -48 37 -12 0 -11 -3 6 -9z"/>
<path d="M1290 663 l0 -26 -23 21 c-32 30 -37 28 -36 -15 2 -32 3 -34 6 -9 l5
28 29 -28 29 -28 0 42 c0 23 -2 42 -5 42 -3 0 -5 -12 -5 -27z"/>
<path d="M1412 653 c-2 -39 0 -43 21 -42 16 1 17 3 5 6 -11 3 -18 17 -21 41
l-4 37 -1 -42z"/>
<path d="M1137 667 c-9 -24 -9 -23 9 -41 8 -9 23 -16 32 -15 14 0 13 2 -3 8
-11 5 -22 21 -25 37 -5 24 -7 26 -13 11z"/>
<path d="M1345 671 c-3 -6 -2 -11 3 -11 6 0 13 -11 16 -25 4 -14 11 -25 16
-25 6 0 3 15 -6 33 -21 41 -21 40 -29 28z"/>
<path d="M1326 635 c-9 -26 -7 -32 5 -12 6 10 9 21 6 23 -2 3 -7 -2 -11 -11z"/>
<path d="M230 548 c0 -3 -7 -22 -15 -42 -8 -20 -11 -36 -6 -36 5 0 12 12 16
28 l7 27 10 -27 c5 -16 14 -28 19 -28 5 0 2 17 -6 37 -15 36 -25 52 -25 41z"/>
<path d="M565 510 c0 -36 2 -40 25 -39 17 1 19 3 8 6 -21 5 -24 29 -5 36 10 4
10 6 0 6 -19 1 -16 19 5 24 11 3 9 5 -8 6 -23 1 -25 -3 -25 -39z"/>
<path d="M300 505 c0 -30 3 -35 23 -34 18 1 19 2 4 6 -15 4 -18 12 -15 34 3
16 1 29 -4 29 -4 0 -8 -16 -8 -35z"/>
<path d="M363 533 c15 -4 18 -12 15 -34 -3 -16 -1 -29 4 -29 4 0 8 13 8 29 0
16 6 32 13 34 6 3 -4 5 -23 5 -19 0 -27 -2 -17 -5z"/>
<path d="M437 505 c-9 -19 -12 -35 -7 -35 6 0 10 5 10 10 0 14 28 12 33 -2 2
-7 7 -11 10 -8 3 3 -2 20 -12 38 l-17 33 -17 -36z"/>
<path d="M645 529 c-4 -5 0 -18 9 -28 9 -10 14 -21 11 -24 -3 -4 0 -3 7 3 9 7
7 14 -6 29 -17 18 -17 19 1 24 15 4 16 5 1 6 -9 0 -20 -4 -23 -10z"/>
<path d="M710 506 c0 -20 4 -36 8 -36 5 0 7 14 4 30 -3 19 0 30 8 30 7 0 10
-7 6 -15 -3 -8 -1 -15 5 -15 17 0 5 35 -14 38 -14 3 -17 -4 -17 -32z"/>
<path d="M780 505 c0 -30 3 -35 23 -35 18 0 19 2 7 10 -12 8 -13 11 -1 19 11
7 11 9 0 14 -12 4 -11 7 1 16 12 9 11 11 -7 11 -20 0 -23 -5 -23 -35z"/>
<path d="M862 531 c-8 -4 -12 -19 -10 -32 2 -19 10 -24 33 -26 28 -2 28 -1 5
5 -15 5 -25 15 -25 27 0 12 9 22 25 26 20 6 21 7 5 8 -11 0 -26 -3 -33 -8z"/>
<path d="M940 505 c0 -19 5 -35 10 -35 6 0 10 16 10 35 0 19 -4 35 -10 35 -5
0 -10 -16 -10 -35z"/>
<path d="M1001 509 c-6 -18 -9 -35 -6 -37 3 -3 5 0 5 6 0 7 7 12 15 12 8 0 15
-4 15 -10 0 -5 4 -10 10 -10 6 0 5 11 -2 28 -19 44 -25 45 -37 11z"/>
<path d="M1082 508 c-2 -34 1 -38 21 -37 15 1 17 3 5 6 -10 2 -18 17 -21 36
-4 31 -4 31 -5 -5z"/>
<path d="M1150 505 c0 -19 4 -35 8 -35 4 0 6 16 4 35 -2 19 -6 35 -8 35 -2 0
-4 -16 -4 -35z"/>
<path d="M1200 505 c0 -22 5 -35 13 -35 9 0 12 10 9 30 -3 22 0 30 11 30 21 0
30 -29 15 -48 -11 -13 -10 -14 2 -10 20 6 26 48 8 59 -7 5 -23 9 -35 9 -20 0
-23 -5 -23 -35z"/>
<path d="M1316 531 c-4 -6 -4 -16 0 -23 4 -6 3 -8 -3 -5 -6 4 -13 -2 -16 -14
-4 -16 -3 -18 9 -8 11 9 17 9 29 -1 18 -15 19 -11 1 30 -8 20 -16 28 -20 21z"/>
<path d="M1380 506 c0 -20 5 -36 10 -36 6 0 10 14 10 30 0 19 5 30 14 30 20 0
29 -30 14 -49 -9 -12 -7 -12 7 2 25 22 10 51 -29 55 -24 3 -26 0 -26 -32z"/>
<path d="M513 403 c175 -2 459 -2 630 0 172 1 29 2 -318 2 -347 0 -487 -1
-312 -2z"/>
<path d="M302 315 c0 -16 2 -22 5 -12 2 9 2 23 0 30 -3 6 -5 -1 -5 -18z"/>
<path d="M372 320 c0 -14 2 -19 5 -12 2 6 2 18 0 25 -3 6 -5 1 -5 -13z"/>
<path d="M401 324 c0 -11 3 -14 6 -6 3 7 2 16 -1 19 -3 4 -6 -2 -5 -13z"/>
<path d="M462 315 c0 -16 2 -22 5 -12 2 9 2 23 0 30 -3 6 -5 -1 -5 -18z"/>
<path d="M677 319 c4 -13 8 -18 11 -10 2 7 -1 18 -6 23 -8 8 -9 4 -5 -13z"/>
<path d="M922 315 c0 -16 2 -22 5 -12 2 9 2 23 0 30 -3 6 -5 -1 -5 -18z"/>
<path d="M1092 315 c0 -16 2 -22 5 -12 2 9 2 23 0 30 -3 6 -5 -1 -5 -18z"/>
<path d="M1197 319 c4 -13 8 -18 11 -10 2 7 -1 18 -6 23 -8 8 -9 4 -5 -13z"/>
<path d="M1262 315 c0 -16 2 -22 5 -12 2 9 2 23 0 30 -3 6 -5 -1 -5 -18z"/>
<path d="M1352 315 c0 -16 2 -22 5 -12 2 9 2 23 0 30 -3 6 -5 -1 -5 -18z"/>
<path d="M501 314 c0 -11 3 -14 6 -6 3 7 2 16 -1 19 -3 4 -6 -2 -5 -13z"/>
<path d="M985 321 c-3 -5 -2 -12 3 -15 5 -3 9 1 9 9 0 17 -3 19 -12 6z"/>
<path d="M1160 316 c0 -8 4 -17 9 -20 5 -4 7 3 4 14 -6 23 -13 26 -13 6z"/>
<path d="M1430 325 c0 -5 5 -17 10 -25 5 -8 10 -10 10 -5 0 6 -5 17 -10 25 -5
8 -10 11 -10 5z"/>
<path d="M840 310 c0 -5 5 -10 11 -10 5 0 7 5 4 10 -3 6 -8 10 -11 10 -2 0 -4
-4 -4 -10z"/>
</g>
</svg>
