<?xml version="1.0" standalone="no"?>
<!DOCTYPE svg PUBLIC "-//W3C//DTD SVG 20010904//EN"
 "http://www.w3.org/TR/2001/REC-SVG-20010904/DTD/svg10.dtd">
<svg version="1.0" xmlns="http://www.w3.org/2000/svg"
 width="225.000000pt" height="225.000000pt" viewBox="0 0 225.000000 225.000000"
 preserveAspectRatio="xMidYMid meet">

<g transform="translate(0.000000,225.000000) scale(0.100000,-0.100000)"
fill="#000000" stroke="none">
<path d="M760 1791 c-34 -9 -65 -68 -56 -105 l7 -28 43 40 c25 23 69 49 105
62 34 13 60 24 59 25 -9 7 -137 12 -158 6z"/>
<path d="M867 1700 c-48 -15 -106 -40 -127 -54 -39 -26 -40 -28 -40 -85 0 -78
26 -225 49 -277 22 -50 85 -142 135 -199 l36 -40 -29 55 c-32 59 -91 204 -91
221 0 5 19 -2 43 -16 51 -32 154 -85 163 -85 4 0 -12 13 -34 30 -83 60 -182
206 -185 273 -2 42 -2 42 48 59 30 10 87 17 145 18 87 2 91 3 50 12 -25 5 -84
8 -133 6 -48 -2 -87 -1 -87 2 1 12 89 69 133 85 26 10 47 19 47 21 0 9 -41 0
-123 -26z"/>
<path d="M1177 1634 c-4 -4 -7 -21 -7 -38 1 -28 2 -29 14 -13 16 20 26 22 26
4 0 -16 -42 -57 -58 -57 -20 0 -52 -62 -52 -100 0 -37 8 -54 27 -57 11 -3 11
8 -2 53 -4 13 -1 26 7 32 81 66 82 67 83 123 0 41 -4 54 -15 57 -9 1 -19 0
-23 -4z"/>
<path d="M1169 1368 c0 -2 -2 -15 -3 -30 -1 -15 -12 -37 -24 -48 -14 -14 -22
-32 -21 -53 0 -30 1 -31 10 -8 5 13 20 37 34 53 25 29 35 88 15 88 -5 0 -10
-1 -11 -2z"/>
<path d="M1146 1171 c-20 -22 -20 -22 0 -15 19 7 19 7 -1 -17 l-19 -24 23 21
c13 12 21 29 19 39 -3 15 -5 15 -22 -4z"/>
<path d="M490 923 c0 -7 990 -7 1220 0 52 2 -201 4 -562 5 -362 1 -658 -1
-658 -5z"/>
<path d="M571 828 c-1 -27 3 -48 7 -48 4 0 6 17 4 38 -5 58 -10 62 -11 10z"/>
<path d="M513 820 c0 -25 2 -35 4 -22 2 12 2 32 0 45 -2 12 -4 2 -4 -23z"/>
<path d="M1213 845 c0 -8 4 -12 9 -9 5 3 6 10 3 15 -9 13 -12 11 -12 -6z"/>
<path d="M678 833 c5 -10 7 -25 5 -33 -4 -13 -3 -13 6 -1 9 14 -2 51 -15 51
-2 0 -1 -8 4 -17z"/>
<path d="M720 839 c0 -8 9 -22 20 -32 11 -9 20 -14 20 -11 0 3 -9 17 -20 31
-12 15 -20 20 -20 12z"/>
<path d="M791 834 c0 -11 3 -14 6 -6 3 7 2 16 -1 19 -3 4 -6 -2 -5 -13z"/>
<path d="M821 834 c0 -11 3 -14 6 -6 3 7 2 16 -1 19 -3 4 -6 -2 -5 -13z"/>
<path d="M863 815 c0 -22 2 -30 4 -17 2 12 2 30 0 40 -3 9 -5 -1 -4 -23z"/>
<path d="M923 815 c0 -22 2 -30 4 -17 2 12 2 30 0 40 -3 9 -5 -1 -4 -23z"/>
<path d="M990 846 c0 -11 30 -66 36 -66 2 0 -3 15 -12 33 -19 36 -24 44 -24
33z"/>
<path d="M1050 817 c0 -20 4 -37 9 -37 5 0 7 15 4 33 -7 45 -13 47 -13 4z"/>
<path d="M1260 815 c0 -19 3 -35 8 -35 4 0 7 16 7 35 0 19 -3 35 -7 35 -4 0
-8 -16 -8 -35z"/>
<path d="M1433 815 c0 -22 2 -30 4 -17 2 12 2 30 0 40 -3 9 -5 -1 -4 -23z"/>
<path d="M1530 835 c7 -8 9 -23 6 -32 -6 -14 -4 -15 4 -7 14 14 4 54 -12 54
-6 0 -6 -6 2 -15z"/>
<path d="M1571 844 c0 -5 16 -22 35 -37 l34 -29 -1 39 c-2 31 -3 33 -6 9 l-5
-28 -29 28 c-16 15 -29 24 -28 18z"/>
<path d="M1686 842 c-4 -7 -3 -12 2 -12 6 0 13 -12 16 -26 4 -15 9 -24 12 -21
3 2 -1 20 -9 38 -8 22 -16 29 -21 21z"/>
<path d="M1750 815 c0 -19 4 -35 8 -35 4 0 6 16 4 35 -2 19 -6 35 -8 35 -2 0
-4 -16 -4 -35z"/>
<path d="M615 830 c-6 -9 11 -50 21 -50 2 0 0 9 -6 20 -6 11 -8 25 -5 30 3 6
4 10 1 10 -3 0 -8 -4 -11 -10z"/>
<path d="M1320 821 c0 -11 4 -22 9 -25 5 -3 8 5 7 19 -1 29 -16 34 -16 6z"/>
<path d="M1215 800 c10 -11 20 -20 23 -20 3 0 -3 9 -13 20 -10 11 -20 20 -23
20 -3 0 3 -9 13 -20z"/>
<path d="M1466 805 c4 -8 8 -15 10 -15 2 0 4 7 4 15 0 8 -4 15 -10 15 -5 0 -7
-7 -4 -15z"/>
<path d="M1666 805 c-9 -26 -7 -32 5 -12 6 10 9 21 6 23 -2 3 -7 -2 -11 -11z"/>
<path d="M786 795 c-3 -8 -1 -15 4 -15 6 0 10 7 10 15 0 8 -2 15 -4 15 -2 0
-6 -7 -10 -15z"/>
<path d="M1571 794 c0 -11 3 -14 6 -6 3 7 2 16 -1 19 -3 4 -6 -2 -5 -13z"/>
<path d="M1170 790 c0 -5 5 -10 11 -10 5 0 7 5 4 10 -3 6 -8 10 -11 10 -2 0
-4 -4 -4 -10z"/>
<path d="M516 695 c-3 -9 -2 -14 3 -11 5 3 12 -5 15 -19 4 -14 11 -25 16 -25
6 0 5 11 -2 28 -17 39 -24 46 -32 27z"/>
<path d="M870 677 c0 -20 4 -37 8 -37 9 0 7 58 -2 67 -3 4 -6 -10 -6 -30z"/>
<path d="M590 670 c0 -16 5 -30 10 -30 6 0 10 14 10 30 0 17 -4 30 -10 30 -5
0 -10 -13 -10 -30z"/>
<path d="M675 670 c0 -16 3 -30 8 -30 4 0 7 14 7 30 0 17 -3 30 -7 30 -5 0 -8
-13 -8 -30z"/>
<path d="M742 675 c-7 -15 -11 -30 -8 -32 2 -2 7 6 11 18 l7 22 14 -24 c9 -15
13 -19 14 -8 0 8 -6 23 -13 33 -12 16 -14 16 -25 -9z"/>
<path d="M950 686 c0 -8 7 -17 16 -20 9 -3 12 -11 8 -18 -5 -10 -4 -10 6 -1 9
9 8 15 -9 32 -15 15 -21 17 -21 7z"/>
<path d="M1020 670 c0 -16 4 -30 8 -30 5 0 7 14 4 30 -2 17 -6 30 -8 30 -2 0
-4 -13 -4 -30z"/>
<path d="M1100 673 c0 -18 2 -33 4 -33 9 0 13 39 5 51 -6 10 -9 4 -9 -18z"/>
<path d="M1177 693 c-9 -9 -9 -41 1 -46 4 -3 7 8 7 24 0 16 0 29 -1 29 0 0 -4
-3 -7 -7z"/>
<path d="M1272 670 c0 -19 2 -27 5 -17 2 9 2 25 0 35 -3 9 -5 1 -5 -18z"/>
<path d="M1336 691 c-4 -6 -3 -11 2 -11 5 0 12 -10 15 -22 4 -12 9 -19 12 -16
4 3 0 19 -8 34 -9 17 -17 23 -21 15z"/>
<path d="M1412 670 c0 -19 2 -27 5 -17 2 9 2 25 0 35 -3 9 -5 1 -5 -18z"/>
<path d="M1482 670 c0 -19 2 -27 5 -17 2 9 2 25 0 35 -3 9 -5 1 -5 -18z"/>
<path d="M1542 670 c0 -19 2 -27 5 -17 2 9 2 25 0 35 -3 9 -5 1 -5 -18z"/>
<path d="M1588 688 c8 -8 8 -17 0 -32 -9 -19 -9 -20 6 -5 17 16 13 49 -7 49
-8 0 -7 -4 1 -12z"/>
<path d="M1656 691 c-3 -5 3 -20 14 -32 l20 -24 -11 33 c-12 34 -15 37 -23 23z"/>
<path d="M1729 698 c-5 -16 -3 -58 3 -58 4 0 8 14 8 30 0 17 -2 30 -5 30 -3 0
-5 -1 -6 -2z"/>
<path d="M1775 671 c0 -16 3 -27 8 -24 4 2 7 15 7 29 0 13 -3 24 -7 24 -5 0
-8 -13 -8 -29z"/>
<path d="M490 572 c0 -5 295 -9 655 -8 360 0 655 3 655 8 0 4 -295 8 -655 8
-360 0 -655 -4 -655 -8z"/>
<path d="M801 484 c0 -11 3 -14 6 -6 3 7 2 16 -1 19 -3 4 -6 -2 -5 -13z"/>
<path d="M1311 484 c0 -11 3 -14 6 -6 3 7 2 16 -1 19 -3 4 -6 -2 -5 -13z"/>
<path d="M1490 486 c0 -8 4 -17 9 -20 5 -4 7 3 4 14 -6 23 -13 26 -13 6z"/>
</g>
</svg>
